<?xml version="1.0" standalone="no"?>
<!DOCTYPE svg PUBLIC "-//W3C//DTD SVG 20010904//EN"
 "http://www.w3.org/TR/2001/REC-SVG-20010904/DTD/svg10.dtd">
<svg version="1.0" xmlns="http://www.w3.org/2000/svg"
 width="151.000000pt" height="151.000000pt" viewBox="0 0 151.000000 151.000000"
 preserveAspectRatio="xMidYMid meet">
<metadata>
Created by potrace 1.14, written by Peter Selinger 2001-2017
</metadata>
<g transform="translate(0.000000,151.000000) scale(0.100000,-0.100000)"
fill="#000000" stroke="none">
<path d="M668 1395 c-2 -2 -18 -7 -36 -10 -169 -29 -336 -188 -387 -367 -17
-61 -23 -177 -12 -241 10 -54 50 -149 85 -199 31 -44 418 -438 430 -438 17 0
431 429 455 470 150 262 52 595 -215 729 -46 22 -96 44 -113 47 -36 8 -201 15
-207 9z m156 -393 c92 -54 100 -180 14 -246 -62 -47 -146 -38 -198 21 -111
126 38 309 184 225z"/>
</g>
</svg>
